<svg width="1896" height="402" viewBox="0 0 1896 402" fill="none" xmlns="http://www.w3.org/2000/svg">
<path fill-rule="evenodd" clip-rule="evenodd" d="M0 390.435C0 393.196 2.23857 395.435 4.99999 395.435H66.9491C69.7105 395.435 71.9491 393.196 71.9491 390.435V250.194H144.248L219.868 392.778C220.735 394.413 222.435 395.435 224.285 395.435H292.949C296.744 395.435 299.156 391.372 297.338 388.04L215.774 238.522C218.125 237.502 220.412 236.415 222.635 235.263C243.954 225.548 259.685 211.211 270.149 193.184C281.088 174.051 286.439 152.096 286.439 126.672C286.439 101.564 281.152 79.4798 270.149 60.1599C260.006 41.5485 244.434 26.7939 223.993 16.7235C203.295 5.70662 177.887 0.434814 147.971 0.434814H5C2.23858 0.434814 0 2.67339 0 5.43482V390.435ZM71.9491 191.827H137.111C154.754 191.377 169.236 188.902 180.552 183.682C191.792 179.001 200.155 171.736 204.987 161.964C211.048 152.578 213.772 140.781 213.132 126.672C213.772 112.75 211.016 100.76 204.987 91.3798C199.995 80.8299 191.6 73.2437 180.552 68.3042C169.044 62.8286 154.498 60.2249 137.111 60.1599H76.9491C74.1877 60.1599 71.9491 62.3985 71.9491 65.1599V191.827Z" fill="#1D2F3F"/>
<path d="M454.084 401.435C424.34 401.435 398.684 395.249 377.117 382.877C355.549 370.505 338.971 352.941 327.383 330.185C315.794 307.428 310 280.601 310 249.704C310 219.319 315.826 192.621 327.479 169.608C339.132 146.595 355.453 128.646 376.441 115.762C397.429 102.877 422.087 96.4348 450.414 96.4348C468.698 96.4348 485.985 99.3515 502.273 105.185C518.561 111.018 532.983 120.025 545.537 132.204C558.091 144.384 567.973 159.864 575.184 178.646C582.395 197.428 586 219.768 586 245.666V262.012C586 264.773 583.761 267.012 581 267.012H347.834C345.073 267.012 342.834 264.773 342.834 262.012V225.089C342.834 222.327 345.073 220.089 347.834 220.089H513.931C516.711 220.089 518.974 217.818 518.794 215.044C518.065 203.737 515.229 193.528 510.288 184.416C504.623 173.967 496.736 165.73 486.628 159.704C476.521 153.678 464.771 150.666 451.38 150.666C437.087 150.666 424.533 154.095 413.717 160.954C402.901 167.813 394.5 176.787 388.512 187.877C382.525 198.967 379.467 211.114 379.338 224.319V265.281C379.338 282.46 382.493 297.172 388.802 309.416C395.111 321.659 403.931 331.018 415.262 337.493C426.593 343.967 439.856 347.204 455.05 347.204C465.222 347.204 474.428 345.762 482.669 342.877C490.91 339.993 498.056 335.73 504.108 330.089C509.262 325.285 513.341 319.504 516.347 312.748C517.281 310.649 519.423 309.307 521.706 309.562L577.477 315.805C580.465 316.139 582.493 319.021 581.644 321.905C577.256 336.811 569.92 349.955 559.636 361.339C548.112 374.095 533.401 383.967 515.503 390.954C497.605 397.941 477.132 401.435 454.084 401.435Z" fill="#1D2F3F"/>
<path d="M865.491 173.064C866.172 175.901 864.145 178.627 861.245 178.942L807.092 184.824C804.663 185.088 802.426 183.547 801.562 181.262C799.701 176.337 797.019 171.651 793.516 167.204C789.074 161.563 783.118 157.012 775.649 153.55C768.181 150.089 759.038 148.358 748.221 148.358C733.67 148.358 721.469 151.499 711.618 157.781C701.767 164.063 696.906 172.204 697.035 182.204C696.906 190.794 700.093 197.781 706.596 203.166C713.099 208.55 723.884 212.973 738.95 216.435L789.557 227.204C817.629 233.23 838.522 242.781 852.236 255.858C865.95 268.935 872.871 286.05 873 307.204C872.871 325.794 867.431 342.172 856.678 356.339C845.926 370.505 831.021 381.563 811.963 389.512C792.905 397.46 771.014 401.435 746.29 401.435C709.976 401.435 680.745 393.839 658.597 378.646C637.888 364.441 625.003 344.996 619.942 320.312C619.364 317.492 621.417 314.857 624.282 314.582L682.825 308.968C685.32 308.729 687.584 310.384 688.315 312.782C691.743 324.033 697.933 332.686 706.886 338.743C716.93 345.537 730 348.935 746.097 348.935C762.708 348.935 776.068 345.537 786.176 338.743C796.285 331.948 801.339 323.55 801.339 313.55C801.339 305.089 798.088 298.101 791.585 292.589C785.082 287.076 775.006 282.845 761.356 279.896L710.749 269.319C682.291 263.422 661.237 253.454 647.587 239.416C633.937 225.377 627.177 207.589 627.306 186.05C627.177 167.845 632.167 152.044 642.275 138.646C652.384 125.249 666.484 114.864 684.576 107.493C702.669 100.121 723.562 96.4348 747.256 96.4348C782.024 96.4348 809.42 103.807 829.443 118.55C848.04 132.243 860.056 150.414 865.491 173.064Z" fill="#1D2F3F"/>
<path d="M1046.03 401.435C1016.44 401.435 991.062 394.96 969.899 382.012C948.737 369.063 932.463 351.146 921.078 328.262C909.693 305.377 904 278.999 904 249.127C904 219.127 909.789 192.621 921.367 169.608C932.945 146.595 949.316 128.646 970.478 115.762C991.64 102.877 1016.69 96.4348 1045.64 96.4348C1069.7 96.4348 1091.02 100.826 1109.61 109.608C1128.2 118.39 1143.03 130.762 1154.09 146.723C1164.21 161.332 1170.35 178.169 1172.5 197.235C1172.83 200.12 1170.53 202.589 1167.62 202.589H1110.37C1107.97 202.589 1105.93 200.875 1105.35 198.544C1102.26 186.09 1096.16 175.547 1087.03 166.916C1076.93 157.364 1063.46 152.589 1046.6 152.589C1032.32 152.589 1019.78 156.403 1008.98 164.031C998.169 171.659 989.775 182.589 983.793 196.819C977.811 211.05 974.82 228.101 974.82 247.973C974.82 268.101 977.779 285.377 983.697 299.8C989.614 314.223 997.944 325.313 1008.69 333.069C1019.43 340.826 1032.07 344.704 1046.6 344.704C1056.9 344.704 1066.13 342.749 1074.3 338.839C1082.46 334.928 1089.32 329.255 1094.85 321.819C1099.67 315.341 1103.17 307.646 1105.35 298.734C1105.92 296.408 1107.96 294.704 1110.36 294.704H1167.58C1170.5 294.704 1172.81 297.196 1172.46 300.094C1170.22 318.795 1164.23 335.492 1154.47 350.185C1143.8 366.275 1129.26 378.839 1110.86 387.877C1092.47 396.916 1070.85 401.435 1046.03 401.435Z" fill="#1D2F3F"/>
<path fill-rule="evenodd" clip-rule="evenodd" d="M1256.02 391.946C1270.6 398.072 1287.5 401.435 1306.4 401.435C1321.77 401.435 1335.26 399.289 1347.26 394.657C1358.31 390.704 1367.91 385.003 1375.85 378.39C1382.96 371.066 1388.75 363.7 1393.06 356.22C1393.37 355.682 1393.94 355.346 1394.56 355.346C1395.51 355.346 1396.28 356.115 1396.28 357.063V391.013C1396.28 393.774 1398.52 396.013 1401.28 396.013H1458C1460.76 396.013 1463 393.774 1463 391.013V198.101C1463 178.306 1459.43 161.97 1452.11 149.301C1445.13 135.833 1435.69 125.487 1423.51 118.124C1412.25 110.24 1399.31 104.763 1385.38 101.857C1370.97 98.1004 1356.74 96.4348 1341.81 96.4348C1321.7 96.4348 1302.77 99.4778 1285.98 105.924C1268.5 111.65 1254.01 120.746 1242.4 133.035C1231.58 143.711 1223.64 156.868 1218.3 172.264C1217.3 175.144 1219.24 178.161 1222.25 178.599L1277.81 186.663C1280.18 187.008 1282.44 185.607 1283.41 183.414C1287.21 174.799 1293.47 167.216 1302.32 160.146C1312.14 153.386 1325.69 149.67 1343.17 149.301C1359.05 149.67 1371.48 153.642 1379.94 161.501C1388.74 169.53 1393.06 180.741 1393.55 195.39V196.746C1393.06 203.034 1390.58 207.935 1385.38 211.657C1380.66 214.213 1372.77 216.519 1362.23 218.435C1358.26 218.804 1353.91 219.25 1349.17 219.734C1340.67 220.605 1330.95 221.601 1320.02 222.501C1305.21 224.431 1291.27 226.897 1277.81 230.635C1264.35 233.688 1252.27 238.653 1241.04 245.546C1230.89 251.722 1222.46 260.434 1216.53 271.301C1210.09 282.215 1207 295.988 1207 311.968C1207 331.991 1211.35 348.263 1220.62 362.124C1228.74 374.657 1240.59 384.618 1256.02 391.946ZM1360.87 341.79C1351.11 347.155 1338.97 349.924 1325.47 349.924C1310.47 349.924 1298.52 346.678 1288.7 340.435C1279.77 333.695 1275.09 324.085 1275.09 311.968C1275.09 302.62 1277.38 295.425 1281.66 289.263C1281.81 289.036 1281.99 288.825 1282.19 288.631C1287.14 283.736 1293.43 279.484 1301.94 276.84C1302.19 276.762 1302.44 276.666 1302.68 276.552C1310.07 273.026 1319.09 270.807 1329.1 269.982C1329.4 269.957 1329.7 269.907 1329.99 269.833C1334.56 268.671 1339.87 267.932 1345.89 267.235C1352.14 266.193 1358.37 265.194 1364.58 264.562C1364.83 264.536 1365.08 264.492 1365.32 264.43C1371.51 262.858 1377.06 261.579 1382.22 260.546C1382.51 260.486 1382.8 260.401 1383.08 260.29C1383.47 260.136 1383.84 259.985 1384.21 259.835C1388.12 258.25 1393.55 261.355 1393.55 265.57V288.924C1393.55 300.411 1390.76 310.403 1385.38 320.101C1379.59 328.731 1371.66 336.082 1360.87 341.79Z" fill="#1D2F3F"/>
<path d="M1574 0.434814C1576.76 0.434814 1579 2.67339 1579 5.43481V390.435C1579 393.196 1576.76 395.435 1574 395.435H1515C1512.24 395.435 1510 393.196 1510 390.435V5.43482C1510 2.67339 1512.24 0.434814 1515 0.434814H1574Z" fill="#1D2F3F"/>
<path d="M1764.08 401.435C1734.34 401.435 1708.68 395.249 1687.12 382.877C1665.55 370.505 1648.97 352.941 1637.38 330.185C1625.79 307.428 1620 280.601 1620 249.704C1620 219.319 1625.83 192.621 1637.48 169.608C1649.13 146.595 1665.45 128.646 1686.44 115.762C1707.43 102.877 1732.09 96.4348 1760.41 96.4348C1778.7 96.4348 1795.98 99.3515 1812.27 105.185C1828.56 111.018 1842.98 120.025 1855.54 132.204C1868.09 144.384 1877.97 159.864 1885.18 178.646C1892.39 197.428 1896 219.768 1896 245.666V262.012C1896 264.773 1893.76 267.012 1891 267.012H1657.83C1655.07 267.012 1652.83 264.773 1652.83 262.012V225.089C1652.83 222.327 1655.07 220.089 1657.83 220.089H1823.93C1826.71 220.089 1828.97 217.818 1828.79 215.044C1828.06 203.737 1825.23 193.528 1820.29 184.416C1814.62 173.967 1806.74 165.73 1796.63 159.704C1786.52 153.678 1774.77 150.666 1761.38 150.666C1747.09 150.666 1734.53 154.095 1723.72 160.954C1712.9 167.813 1704.5 176.787 1698.51 187.877C1692.52 198.967 1689.47 211.114 1689.34 224.319V265.281C1689.34 282.46 1692.49 297.172 1698.8 309.416C1705.11 321.659 1713.93 331.018 1725.26 337.493C1736.59 343.967 1749.86 347.204 1765.05 347.204C1775.22 347.204 1784.43 345.762 1792.67 342.877C1800.91 339.993 1808.06 335.73 1814.11 330.089C1819.26 325.285 1823.34 319.504 1826.35 312.748C1827.28 310.649 1829.42 309.307 1831.71 309.562L1887.48 315.805C1890.46 316.139 1892.49 319.021 1891.64 321.905C1887.26 336.811 1879.92 349.955 1869.64 361.339C1858.11 374.095 1843.4 383.967 1825.5 390.954C1807.61 397.941 1787.13 401.435 1764.08 401.435Z" fill="#1D2F3F"/>
</svg>
