<svg width="2360" height="765" viewBox="0 0 2360 765" fill="none" xmlns="http://www.w3.org/2000/svg">
<path fill-rule="evenodd" clip-rule="evenodd" d="M236.016 574.511C236.016 577.273 238.254 579.511 241.016 579.511H302.965C305.726 579.511 307.965 577.273 307.965 574.511V434.271H380.264L455.884 576.854C456.751 578.489 458.45 579.511 460.301 579.511H528.964C532.76 579.511 535.171 575.449 533.354 572.117L451.79 422.599C454.14 421.578 456.428 420.492 458.651 419.34C479.969 409.624 495.701 395.287 506.164 377.261C517.104 358.128 522.455 336.172 522.455 310.749C522.455 285.64 517.168 263.556 506.164 244.237C496.021 225.625 480.45 210.871 460.008 200.8C439.31 189.783 413.903 184.511 383.986 184.511H241.016C238.254 184.511 236.016 186.75 236.016 189.511V574.511ZM307.965 375.903H373.126C390.77 375.454 405.252 372.979 416.567 367.759C427.808 363.078 436.17 355.813 441.003 346.041C447.064 336.655 449.787 324.857 449.148 310.749C449.787 296.827 447.032 284.837 441.003 275.456C436.01 264.907 427.616 257.32 416.567 252.381C405.059 246.905 390.513 244.302 373.126 244.237H312.965C310.203 244.237 307.965 246.475 307.965 249.237V375.903Z" fill="#1D2F3F"/>
<path d="M690.1 585.511C660.356 585.511 634.7 579.326 613.132 566.954C591.565 554.582 574.987 537.018 563.398 514.261C551.81 491.505 546.016 464.678 546.016 433.781C546.016 403.396 551.842 376.697 563.495 353.685C575.148 330.672 591.468 312.723 612.456 299.838C633.445 286.954 658.102 280.511 686.43 280.511C704.714 280.511 722 283.428 738.289 289.261C754.577 295.095 768.998 304.101 781.552 316.281C794.107 328.46 803.989 343.941 811.2 362.723C818.41 381.505 822.016 403.845 822.016 429.742V446.088C822.016 448.85 819.777 451.088 817.016 451.088H583.85C581.088 451.088 578.85 448.85 578.85 446.088V409.165C578.85 406.404 581.088 404.165 583.85 404.165H749.947C752.727 404.165 754.989 401.895 754.81 399.12C754.08 387.814 751.245 377.605 746.304 368.492C740.638 358.044 732.752 349.806 722.644 343.781C712.536 337.755 700.787 334.742 687.396 334.742C673.103 334.742 660.549 338.172 649.733 345.031C638.917 351.89 630.515 360.864 624.528 371.954C618.54 383.044 615.482 395.191 615.354 408.396V449.358C615.354 466.537 618.508 481.249 624.818 493.492C631.127 505.736 639.947 515.095 651.278 521.569C662.609 528.044 675.871 531.281 691.065 531.281C701.237 531.281 710.444 529.838 718.685 526.954C726.925 524.069 734.072 519.806 740.123 514.165C745.277 509.361 749.357 503.581 752.363 496.824C753.297 494.726 755.439 493.383 757.721 493.639L813.492 499.882C816.48 500.216 818.508 503.098 817.659 505.982C813.271 520.887 805.935 534.032 795.652 545.415C784.128 558.172 769.417 568.044 751.519 575.031C733.621 582.018 713.148 585.511 690.1 585.511Z" fill="#1D2F3F"/>
<path d="M1101.51 357.141C1102.19 359.978 1100.16 362.704 1097.26 363.019L1043.11 368.901C1040.68 369.164 1038.44 367.624 1037.58 365.339C1035.72 360.414 1033.03 355.728 1029.53 351.281C1025.09 345.64 1019.13 341.088 1011.67 337.627C1004.2 334.165 995.054 332.435 984.237 332.435C969.686 332.435 957.485 335.576 947.634 341.858C937.783 348.14 932.922 356.281 933.051 366.281C932.922 374.87 936.109 381.858 942.612 387.242C949.115 392.627 959.899 397.05 974.965 400.511L1025.57 411.281C1053.64 417.306 1074.54 426.858 1088.25 439.935C1101.97 453.011 1108.89 470.127 1109.02 491.281C1108.89 509.87 1103.45 526.249 1092.69 540.415C1081.94 554.582 1067.04 565.64 1047.98 573.588C1028.92 581.537 1007.03 585.511 982.305 585.511C945.992 585.511 916.761 577.915 894.613 562.723C873.903 548.518 861.018 529.073 855.957 504.388C855.379 501.569 857.433 498.934 860.298 498.659L918.84 493.045C921.336 492.806 923.6 494.461 924.331 496.858C927.759 508.109 933.949 516.763 942.902 522.819C952.946 529.614 966.016 533.011 982.112 533.011C998.724 533.011 1012.08 529.614 1022.19 522.819C1032.3 516.024 1037.35 507.627 1037.35 497.627C1037.35 489.165 1034.1 482.178 1027.6 476.665C1021.1 471.152 1011.02 466.922 997.372 463.973L946.765 453.396C918.306 447.499 897.252 437.531 883.603 423.492C869.953 409.454 863.193 391.665 863.321 370.127C863.193 351.922 868.182 336.12 878.291 322.723C888.399 309.326 902.5 298.941 920.592 291.569C938.684 284.197 959.577 280.511 983.271 280.511C1018.04 280.511 1045.44 287.883 1065.46 302.627C1084.06 316.32 1096.07 334.491 1101.51 357.141Z" fill="#1D2F3F"/>
<path d="M1282.04 585.511C1252.45 585.511 1227.08 579.037 1205.91 566.088C1184.75 553.14 1168.48 535.223 1157.09 512.338C1145.71 489.454 1140.02 463.076 1140.02 433.204C1140.02 403.204 1145.8 376.697 1157.38 353.685C1168.96 330.672 1185.33 312.723 1206.49 299.838C1227.66 286.954 1252.71 280.511 1281.66 280.511C1305.71 280.511 1327.04 284.903 1345.63 293.685C1364.21 302.467 1379.04 314.838 1390.1 330.8C1400.23 345.409 1406.37 362.246 1408.52 381.311C1408.85 384.197 1406.54 386.665 1403.64 386.665H1346.39C1343.99 386.665 1341.94 384.952 1341.37 382.621C1338.28 370.167 1332.17 359.624 1323.05 350.992C1312.95 341.441 1299.47 336.665 1282.62 336.665C1268.34 336.665 1255.8 340.479 1244.99 348.108C1234.18 355.736 1225.79 366.665 1219.81 380.896C1213.83 395.127 1210.84 412.178 1210.84 432.05C1210.84 452.178 1213.79 469.454 1219.71 483.877C1225.63 498.3 1233.96 509.39 1244.7 517.146C1255.44 524.902 1268.08 528.781 1282.62 528.781C1292.91 528.781 1302.14 526.826 1310.31 522.915C1318.48 519.005 1325.33 513.332 1330.86 505.896C1335.68 499.418 1339.18 491.722 1341.37 482.811C1341.94 480.484 1343.98 478.781 1346.37 478.781H1403.6C1406.52 478.781 1408.83 481.273 1408.48 484.171C1406.24 502.872 1400.24 519.569 1390.49 534.261C1379.81 550.351 1365.28 562.915 1346.88 571.954C1328.48 580.992 1306.87 585.511 1282.04 585.511Z" fill="#1D2F3F"/>
<path fill-rule="evenodd" clip-rule="evenodd" d="M1492.04 576.023C1506.61 582.148 1523.52 585.511 1542.42 585.511C1557.78 585.511 1571.27 583.365 1583.27 578.734C1594.33 574.781 1603.93 569.08 1611.87 562.467C1618.98 555.143 1624.76 547.776 1629.07 540.297C1629.38 539.759 1629.95 539.423 1630.58 539.423C1631.52 539.423 1632.29 540.191 1632.29 541.14V575.089C1632.29 577.851 1634.53 580.089 1637.29 580.089H1694.02C1696.78 580.089 1699.02 577.851 1699.02 575.089V382.178C1699.02 362.383 1695.44 346.047 1688.12 333.378C1681.14 319.91 1671.71 309.564 1659.53 302.2C1648.27 294.317 1635.32 288.84 1621.4 285.934C1606.98 282.177 1592.75 280.511 1577.82 280.511C1557.72 280.511 1538.78 283.554 1521.99 290C1504.52 295.726 1490.03 304.823 1478.42 317.111C1467.6 327.788 1459.65 340.944 1454.32 356.341C1453.32 359.221 1455.25 362.237 1458.27 362.675L1513.82 370.74C1516.19 371.085 1518.45 369.684 1519.42 367.49C1523.23 358.875 1529.48 351.292 1538.33 344.223C1548.15 337.463 1561.71 333.747 1579.19 333.378C1595.07 333.747 1607.5 337.719 1615.95 345.578C1624.76 353.606 1629.07 364.817 1629.57 379.467V380.823C1629.07 387.111 1626.6 392.012 1621.4 395.734C1616.68 398.29 1608.79 400.596 1598.25 402.511C1594.28 402.88 1589.92 403.326 1585.19 403.811C1576.69 404.682 1566.96 405.678 1556.04 406.578C1541.23 408.508 1527.29 410.974 1513.82 414.711C1500.37 417.765 1488.29 422.729 1477.06 429.623C1466.91 435.798 1458.47 444.511 1452.55 455.378C1446.11 466.292 1443.02 480.065 1443.02 496.045C1443.02 516.068 1447.36 532.34 1456.63 546.2C1464.75 558.733 1476.6 568.695 1492.04 576.023ZM1596.89 525.867C1587.13 531.232 1574.99 534 1561.48 534C1546.48 534 1534.54 530.755 1524.72 524.511C1515.79 517.772 1511.1 508.162 1511.1 496.045C1511.1 486.696 1513.39 479.501 1517.67 473.34C1517.83 473.113 1518.01 472.902 1518.2 472.708C1523.16 467.813 1529.45 463.561 1537.95 460.917C1538.21 460.839 1538.45 460.742 1538.69 460.629C1546.08 457.103 1555.11 454.884 1565.12 454.059C1565.42 454.034 1565.71 453.984 1566 453.91C1570.58 452.747 1575.89 452.008 1581.91 451.311C1588.16 450.27 1594.39 449.271 1600.6 448.638C1600.85 448.613 1601.1 448.569 1601.34 448.507C1607.52 446.934 1613.07 445.656 1618.23 444.622C1618.53 444.563 1618.82 444.478 1619.1 444.366C1619.48 444.213 1619.86 444.061 1620.23 443.911C1624.14 442.327 1629.57 445.431 1629.57 449.647V473C1629.57 484.488 1626.78 494.479 1621.4 504.178C1615.6 512.808 1607.67 520.158 1596.89 525.867Z" fill="#1D2F3F"/>
<path d="M1810.02 184.511C1812.78 184.511 1815.02 186.75 1815.02 189.511V574.511C1815.02 577.273 1812.78 579.511 1810.02 579.511H1751.02C1748.25 579.511 1746.02 577.273 1746.02 574.511V189.511C1746.02 186.75 1748.25 184.511 1751.02 184.511H1810.02Z" fill="#1D2F3F"/>
<path d="M2000.1 585.511C1970.36 585.511 1944.7 579.326 1923.13 566.954C1901.56 554.582 1884.99 537.018 1873.4 514.261C1861.81 491.505 1856.02 464.678 1856.02 433.781C1856.02 403.396 1861.84 376.697 1873.49 353.685C1885.15 330.672 1901.47 312.723 1922.46 299.838C1943.44 286.954 1968.1 280.511 1996.43 280.511C2014.71 280.511 2032 283.428 2048.29 289.261C2064.58 295.095 2079 304.101 2091.55 316.281C2104.11 328.46 2113.99 343.941 2121.2 362.723C2128.41 381.505 2132.02 403.845 2132.02 429.742V446.088C2132.02 448.85 2129.78 451.088 2127.02 451.088H1893.85C1891.09 451.088 1888.85 448.85 1888.85 446.088V409.165C1888.85 406.404 1891.09 404.165 1893.85 404.165H2059.95C2062.73 404.165 2064.99 401.895 2064.81 399.12C2064.08 387.814 2061.24 377.605 2056.3 368.492C2050.64 358.044 2042.75 349.806 2032.64 343.781C2022.54 337.755 2010.79 334.742 1997.4 334.742C1983.1 334.742 1970.55 338.172 1959.73 345.031C1948.92 351.89 1940.52 360.864 1934.53 371.954C1928.54 383.044 1925.48 395.191 1925.35 408.396V449.358C1925.35 466.537 1928.51 481.249 1934.82 493.492C1941.13 505.736 1949.95 515.095 1961.28 521.569C1972.61 528.044 1985.87 531.281 2001.07 531.281C2011.24 531.281 2020.44 529.838 2028.68 526.954C2036.93 524.069 2044.07 519.806 2050.12 514.165C2055.28 509.361 2059.36 503.581 2062.36 496.824C2063.3 494.726 2065.44 493.383 2067.72 493.639L2123.49 499.882C2126.48 500.216 2128.51 503.098 2127.66 505.982C2123.27 520.887 2115.94 534.032 2105.65 545.415C2094.13 558.172 2079.42 568.044 2061.52 575.031C2043.62 582.018 2023.15 585.511 2000.1 585.511Z" fill="#1D2F3F"/>
<path fill-rule="evenodd" clip-rule="evenodd" d="M2354.7 764.511C2357.46 764.511 2359.7 762.273 2359.7 759.511V5.51147C2359.7 2.75005 2357.46 0.511475 2354.7 0.511475H5.5625C2.80108 0.511475 0.5625 2.75005 0.5625 5.51147V759.511C0.5625 762.273 2.80108 764.511 5.5625 764.511H2354.7ZM2269.08 85.8045C2271.84 85.8045 2274.08 88.0431 2274.08 90.8045L2274.08 673.88C2274.08 676.642 2271.84 678.88 2269.08 678.88L90.8455 678.88C88.0841 678.88 85.8455 676.641 85.8455 673.88L85.8463 90.8051C85.8463 88.0437 88.0849 85.8051 90.8463 85.8051L2269.08 85.8045Z" fill="#0059A7"/>
</svg>
