<svg width="2360" height="765" viewBox="0 0 2360 765" fill="none" xmlns="http://www.w3.org/2000/svg">
<path fill-rule="evenodd" clip-rule="evenodd" d="M236 574.435C236 577.196 238.239 579.435 241 579.435H302.949C305.711 579.435 307.949 577.196 307.949 574.435V434.194H380.248L455.868 576.778C456.735 578.413 458.435 579.435 460.285 579.435H528.949C532.744 579.435 535.156 575.372 533.338 572.04L451.774 422.522C454.125 421.502 456.412 420.415 458.635 419.263C479.954 409.548 495.685 395.211 506.149 377.184C517.088 358.051 522.439 336.096 522.439 310.672C522.439 285.564 517.152 263.48 506.149 244.16C496.006 225.549 480.434 210.794 459.993 200.723C439.295 189.707 413.887 184.435 383.971 184.435H241C238.239 184.435 236 186.673 236 189.435V574.435ZM307.949 375.827H373.111C390.754 375.377 405.236 372.902 416.552 367.682C427.792 363.001 436.155 355.736 440.987 345.964C447.048 336.578 449.772 324.781 449.132 310.672C449.772 296.75 447.016 284.76 440.987 275.38C435.995 264.83 427.6 257.244 416.552 252.304C405.044 246.829 390.498 244.225 373.111 244.16H312.949C310.188 244.16 307.949 246.398 307.949 249.16V375.827Z" fill="white"/>
<path d="M690.084 585.435C660.34 585.435 634.684 579.249 613.117 566.877C591.549 554.505 574.971 536.941 563.383 514.185C551.794 491.428 546 464.601 546 433.704C546 403.319 551.826 376.621 563.479 353.608C575.132 330.595 591.453 312.646 612.441 299.762C633.429 286.877 658.087 280.435 686.414 280.435C704.698 280.435 721.985 283.351 738.273 289.185C754.561 295.018 768.983 304.025 781.537 316.204C794.091 328.384 803.973 343.864 811.184 362.646C818.395 381.428 822 403.768 822 429.666V446.012C822 448.773 819.761 451.012 817 451.012H583.834C581.073 451.012 578.834 448.773 578.834 446.012V409.089C578.834 406.327 581.073 404.089 583.834 404.089H749.931C752.711 404.089 754.974 401.818 754.794 399.044C754.065 387.737 751.229 377.528 746.288 368.416C740.623 357.967 732.736 349.73 722.628 343.704C712.521 337.678 700.771 334.666 687.38 334.666C673.087 334.666 660.533 338.095 649.717 344.954C638.901 351.813 630.5 360.787 624.512 371.877C618.525 382.967 615.467 395.114 615.338 408.319V449.281C615.338 466.46 618.493 481.172 624.802 493.416C631.111 505.659 639.931 515.018 651.262 521.493C662.593 527.967 675.856 531.204 691.05 531.204C701.222 531.204 710.428 529.762 718.669 526.877C726.91 523.993 734.056 519.73 740.108 514.089C745.262 509.285 749.341 503.504 752.347 496.748C753.281 494.649 755.423 493.307 757.706 493.562L813.477 499.805C816.465 500.139 818.493 503.021 817.644 505.905C813.256 520.811 805.92 533.955 795.636 545.339C784.112 558.095 769.401 567.967 751.503 574.954C733.605 581.941 713.132 585.435 690.084 585.435Z" fill="white"/>
<path d="M1101.49 357.064C1102.17 359.901 1100.15 362.627 1097.24 362.942L1043.09 368.824C1040.66 369.088 1038.43 367.547 1037.56 365.262C1035.7 360.337 1033.02 355.651 1029.52 351.204C1025.07 345.563 1019.12 341.012 1011.65 337.55C1004.18 334.089 995.038 332.358 984.221 332.358C969.67 332.358 957.469 335.499 947.618 341.781C937.767 348.063 932.906 356.204 933.035 366.204C932.906 374.794 936.093 381.781 942.596 387.166C949.099 392.55 959.884 396.973 974.95 400.435L1025.56 411.204C1053.63 417.23 1074.52 426.781 1088.24 439.858C1101.95 452.935 1108.87 470.05 1109 491.204C1108.87 509.794 1103.43 526.172 1092.68 540.339C1081.93 554.505 1067.02 565.563 1047.96 573.512C1028.9 581.46 1007.01 585.435 982.29 585.435C945.976 585.435 916.745 577.839 894.597 562.646C873.888 548.441 861.003 528.996 855.942 504.312C855.364 501.492 857.417 498.857 860.282 498.582L918.825 492.968C921.32 492.729 923.584 494.384 924.315 496.782C927.743 508.033 933.933 516.686 942.886 522.743C952.93 529.537 966 532.935 982.097 532.935C998.708 532.935 1012.07 529.537 1022.18 522.743C1032.28 515.948 1037.34 507.55 1037.34 497.55C1037.34 489.089 1034.09 482.101 1027.58 476.589C1021.08 471.076 1011.01 466.845 997.356 463.896L946.749 453.319C918.291 447.422 897.237 437.454 883.587 423.416C869.937 409.377 863.177 391.589 863.306 370.05C863.177 351.845 868.167 336.044 878.275 322.646C888.384 309.249 902.484 298.864 920.576 291.493C938.669 284.121 959.562 280.435 983.256 280.435C1018.02 280.435 1045.42 287.807 1065.44 302.55C1084.04 316.243 1096.06 334.414 1101.49 357.064Z" fill="white"/>
<path d="M1282.03 585.435C1252.44 585.435 1227.06 578.96 1205.9 566.012C1184.74 553.063 1168.46 535.146 1157.08 512.262C1145.69 489.377 1140 462.999 1140 433.127C1140 403.127 1145.79 376.621 1157.37 353.608C1168.95 330.595 1185.32 312.646 1206.48 299.762C1227.64 286.877 1252.69 280.435 1281.64 280.435C1305.7 280.435 1327.02 284.826 1345.61 293.608C1364.2 302.39 1379.03 314.762 1390.09 330.723C1400.21 345.332 1406.35 362.169 1408.5 381.235C1408.83 384.12 1406.53 386.589 1403.62 386.589H1346.37C1343.97 386.589 1341.93 384.875 1341.35 382.544C1338.26 370.09 1332.16 359.547 1323.03 350.916C1312.93 341.364 1299.46 336.589 1282.6 336.589C1268.32 336.589 1255.78 340.403 1244.98 348.031C1234.17 355.659 1225.78 366.589 1219.79 380.819C1213.81 395.05 1210.82 412.101 1210.82 431.973C1210.82 452.101 1213.78 469.377 1219.7 483.8C1225.61 498.223 1233.94 509.313 1244.69 517.069C1255.43 524.826 1268.07 528.704 1282.6 528.704C1292.9 528.704 1302.13 526.749 1310.3 522.839C1318.46 518.928 1325.32 513.255 1330.85 505.819C1335.67 499.341 1339.17 491.646 1341.35 482.734C1341.92 480.408 1343.96 478.704 1346.36 478.704H1403.58C1406.5 478.704 1408.81 481.196 1408.46 484.094C1406.22 502.795 1400.23 519.492 1390.47 534.185C1379.8 550.275 1365.26 562.839 1346.86 571.877C1328.47 580.916 1306.85 585.435 1282.03 585.435Z" fill="white"/>
<path fill-rule="evenodd" clip-rule="evenodd" d="M1492.02 575.946C1506.6 582.072 1523.5 585.435 1542.4 585.435C1557.77 585.435 1571.26 583.289 1583.26 578.657C1594.31 574.704 1603.91 569.003 1611.85 562.39C1618.96 555.066 1624.75 547.7 1629.06 540.22C1629.37 539.682 1629.94 539.346 1630.56 539.346C1631.51 539.346 1632.28 540.115 1632.28 541.063V575.013C1632.28 577.774 1634.52 580.013 1637.28 580.013H1694C1696.76 580.013 1699 577.774 1699 575.013V382.101C1699 362.306 1695.43 345.97 1688.11 333.301C1681.13 319.833 1671.69 309.487 1659.51 302.124C1648.25 294.24 1635.31 288.763 1621.38 285.857C1606.97 282.1 1592.74 280.435 1577.81 280.435C1557.7 280.435 1538.77 283.478 1521.98 289.924C1504.5 295.65 1490.01 304.746 1478.4 317.035C1467.58 327.711 1459.64 340.868 1454.3 356.264C1453.3 359.144 1455.24 362.161 1458.25 362.599L1513.81 370.663C1516.18 371.008 1518.44 369.607 1519.41 367.414C1523.21 358.799 1529.47 351.216 1538.32 344.146C1548.14 337.386 1561.69 333.67 1579.17 333.301C1595.05 333.67 1607.48 337.642 1615.94 345.501C1624.74 353.53 1629.06 364.741 1629.55 379.39V380.746C1629.06 387.034 1626.58 391.935 1621.38 395.657C1616.66 398.213 1608.77 400.519 1598.23 402.435C1594.26 402.804 1589.91 403.25 1585.17 403.734C1576.67 404.605 1566.95 405.601 1556.02 406.501C1541.21 408.431 1527.27 410.897 1513.81 414.635C1500.35 417.688 1488.27 422.653 1477.04 429.546C1466.89 435.722 1458.46 444.434 1452.53 455.301C1446.09 466.215 1443 479.988 1443 495.968C1443 515.991 1447.35 532.263 1456.62 546.124C1464.74 558.657 1476.59 568.618 1492.02 575.946ZM1596.87 525.79C1587.11 531.155 1574.97 533.924 1561.47 533.924C1546.47 533.924 1534.52 530.678 1524.7 524.435C1515.77 517.695 1511.09 508.085 1511.09 495.968C1511.09 486.62 1513.38 479.425 1517.66 473.263C1517.81 473.036 1517.99 472.825 1518.19 472.631C1523.14 467.736 1529.43 463.484 1537.94 460.84C1538.19 460.762 1538.44 460.666 1538.68 460.552C1546.07 457.026 1555.09 454.807 1565.1 453.982C1565.4 453.957 1565.7 453.907 1565.99 453.833C1570.56 452.671 1575.87 451.932 1581.89 451.235C1588.14 450.193 1594.37 449.194 1600.58 448.562C1600.83 448.536 1601.08 448.492 1601.32 448.43C1607.51 446.858 1613.06 445.579 1618.22 444.546C1618.51 444.486 1618.8 444.401 1619.08 444.29C1619.47 444.136 1619.84 443.985 1620.21 443.835C1624.12 442.25 1629.55 445.355 1629.55 449.57V472.924C1629.55 484.411 1626.76 494.403 1621.38 504.101C1615.59 512.731 1607.66 520.082 1596.87 525.79Z" fill="white"/>
<path d="M1810 184.435C1812.76 184.435 1815 186.673 1815 189.435V574.435C1815 577.196 1812.76 579.435 1810 579.435H1751C1748.24 579.435 1746 577.196 1746 574.435V189.435C1746 186.673 1748.24 184.435 1751 184.435H1810Z" fill="white"/>
<path d="M2000.08 585.435C1970.34 585.435 1944.68 579.249 1923.12 566.877C1901.55 554.505 1884.97 536.941 1873.38 514.185C1861.79 491.428 1856 464.601 1856 433.704C1856 403.319 1861.83 376.621 1873.48 353.608C1885.13 330.595 1901.45 312.646 1922.44 299.762C1943.43 286.877 1968.09 280.435 1996.41 280.435C2014.7 280.435 2031.98 283.351 2048.27 289.185C2064.56 295.018 2078.98 304.025 2091.54 316.204C2104.09 328.384 2113.97 343.864 2121.18 362.646C2128.39 381.428 2132 403.768 2132 429.666V446.012C2132 448.773 2129.76 451.012 2127 451.012H1893.83C1891.07 451.012 1888.83 448.773 1888.83 446.012V409.089C1888.83 406.327 1891.07 404.089 1893.83 404.089H2059.93C2062.71 404.089 2064.97 401.818 2064.79 399.044C2064.06 387.737 2061.23 377.528 2056.29 368.416C2050.62 357.967 2042.74 349.73 2032.63 343.704C2022.52 337.678 2010.77 334.666 1997.38 334.666C1983.09 334.666 1970.53 338.095 1959.72 344.954C1948.9 351.813 1940.5 360.787 1934.51 371.877C1928.52 382.967 1925.47 395.114 1925.34 408.319V449.281C1925.34 466.46 1928.49 481.172 1934.8 493.416C1941.11 505.659 1949.93 515.018 1961.26 521.493C1972.59 527.967 1985.86 531.204 2001.05 531.204C2011.22 531.204 2020.43 529.762 2028.67 526.877C2036.91 523.993 2044.06 519.73 2050.11 514.089C2055.26 509.285 2059.34 503.504 2062.35 496.748C2063.28 494.649 2065.42 493.307 2067.71 493.562L2123.48 499.805C2126.46 500.139 2128.49 503.021 2127.64 505.905C2123.26 520.811 2115.92 533.955 2105.64 545.339C2094.11 558.095 2079.4 567.967 2061.5 574.954C2043.61 581.941 2023.13 585.435 2000.08 585.435Z" fill="white"/>
<path fill-rule="evenodd" clip-rule="evenodd" d="M2354.69 764.435C2357.45 764.435 2359.69 762.196 2359.69 759.435V5.43481C2359.69 2.67339 2357.45 0.434814 2354.69 0.434814H5.54883C2.7874 0.434814 0.548828 2.67339 0.548828 5.43481V759.435C0.548828 762.196 2.7874 764.435 5.54883 764.435H2354.69ZM2269.07 85.7278C2271.83 85.7278 2274.07 87.9664 2274.07 90.7278L2274.07 673.804C2274.07 676.565 2271.83 678.804 2269.07 678.804L90.8318 678.803C88.0704 678.803 85.8318 676.564 85.8318 673.803L85.8326 90.7284C85.8326 87.967 88.0712 85.7284 90.8326 85.7284L2269.07 85.7278Z" fill="#0059A7"/>
</svg>
